<?xml version="1.0" encoding="utf-8"?>
<!DOCTYPE svg PUBLIC "-//W3C//DTD SVG 20010904//EN" "http://www.w3.org/TR/2001/REC-SVG-20010904/DTD/svg10.dtd">
<svg version="1.0" xmlns="http://www.w3.org/2000/svg" width="316px" height="159px" viewBox="0 0 316 159" preserveAspectRatio="xMidYMid meet">
 <g fill="#ffffff">
  <path d="M0 79.5 l0 -79.5 158 0 158 0 0 79.5 0 79.5 -158 0 -158 0 0 -79.5z m81.8 9.3 l-0.1 -6.3 -0.6 5.5 -0.6 5.5 -18.5 0 -18.5 0 -0.3 -18.2 -0.2 -18.3 6.5 0 c3.6 0 6.5 -0.4 6.5 -0.9 0 -1.4 -2.8 -2.1 -8.6 -2.1 l-5.4 0 0 20.5 0 20.5 20 0 20 0 -0.2 -6.2z m1.2 -26.8 l0 -7 -6.5 0 c-3.7 0 -6.5 0.4 -6.5 1 0 0.6 1.1 1 2.5 1 2 0 2.5 0.5 2.5 2.5 0 2.2 0.4 2.5 3.5 2.5 3.3 0 3.5 0.2 3.5 3.5 0 1.9 0.2 3.5 0.5 3.5 0.3 0 0.5 -3.1 0.5 -7z"/>
 </g>
 <g fill="#264280">
  <path d="M101.9 84.1 c-5.8 -5.8 -2.6 -18.1 4.7 -18.1 0.8 0 1.4 0.5 1.4 1 0 0.6 -0.6 1 -1.3 1 -2 0 -4.7 3.3 -4.7 5.8 0 2 0.4 2.2 4.3 1.6 5.5 -0.8 6.3 -1.7 4.8 -5 -0.6 -1.5 -0.9 -2.9 -0.6 -3.2 1 -1 3.4 2.3 4.1 5.5 l0.6 3.2 -6.1 0.7 c-3.4 0.4 -6.4 1 -6.6 1.5 -0.3 0.4 0 1.9 0.6 3.2 1.3 2.8 4.6 4.1 8.4 3.1 2.7 -0.7 3.5 1 0.9 2 -3.7 1.4 -7.6 0.6 -10.5 -2.3z"/>
  <path d="M122.2 85.4 c-2 -1.4 -2.2 -2.3 -2.2 -10.5 0 -7.2 0.3 -8.9 1.5 -8.9 1.2 0 1.5 1.6 1.5 8.4 0 6.2 0.4 8.7 1.5 9.6 1.9 1.5 6.5 0.5 6.5 -1.5 0 -0.8 0.7 -1.5 1.5 -1.5 2.5 0 1.9 4.7 -0.7 5.4 -3.9 1 -7.3 0.7 -9.6 -1z"/>
  <path d="M140.4 85.7 c-0.3 -0.8 -0.4 -5.4 -0.2 -10.3 0.3 -8.9 0.3 -8.9 3.1 -9.2 1.5 -0.2 2.7 0.1 2.7 0.7 0 0.6 -0.7 1.1 -1.5 1.1 -1.2 0 -1.5 1.7 -1.5 9.5 0 5.9 -0.4 9.5 -1 9.5 -0.6 0 -1.3 -0.6 -1.6 -1.3z"/>
  <path d="M154.7 85 c-3.2 -2.6 -4.4 -7.9 -2.8 -13.1 1.2 -4.1 3.5 -5.9 7.3 -5.9 5.6 0 8.8 5.8 7.4 13.6 -1.3 6.9 -6.8 9.4 -11.9 5.4z m7.7 -2.2 c2.1 -2.9 2 -9.7 0 -12.6 -3.8 -5.4 -9.2 0.3 -7.9 8.4 0.9 6.2 5 8.4 7.9 4.2z"/>
  <path d="M172.3 86.3 c-2.1 -0.8 -1.5 -2.5 0.7 -1.8 2.6 0.8 6 -1.1 6 -3.5 0 -1.2 -1.6 -3 -4 -4.5 -4.4 -2.8 -5.3 -6.1 -2.4 -9 1.8 -1.7 8.5 -1.8 8.3 0 0 0.6 -0.6 0.9 -1.2 0.7 -0.6 -0.2 -2.1 -0.1 -3.4 0.3 -3.5 0.8 -2.8 3.8 1.5 6.6 2.8 1.8 3.8 3.2 4 5.6 0.5 4.6 -4.6 7.6 -9.5 5.6z"/>
  <path d="M191.2 86 c-5.2 -2.1 -6.4 -12.9 -1.9 -17.7 4.3 -4.7 12.7 -1.3 12.7 5.2 0 2 -0.7 2.3 -6.2 3.1 -5.5 0.8 -6.3 1.2 -6 2.9 0.5 3.4 4 5.6 7.8 4.9 2 -0.4 3.4 -0.2 3.4 0.4 0 2.2 -5.6 2.8 -9.8 1.2z m5.1 -11 c2.1 0 2.7 -0.5 2.7 -2.3 0 -2.9 -1.8 -4.7 -4.6 -4.7 -2.5 0 -5.4 3.4 -5.4 6.3 0 1.5 0.5 1.8 2.3 1.3 1.2 -0.3 3.4 -0.6 5 -0.6z"/>
  <path d="M207 85.1 c0 -1.2 0.6 -2.1 1.6 -2.1 0.9 0 1.4 0.7 1.2 1.7 -0.5 2.5 -2.8 2.8 -2.8 0.4z"/>
  <path d="M219.7 86.3 c-0.4 -0.3 -0.7 -3.7 -0.7 -7.5 0 -8.5 -1.1 -10.8 -5 -10.8 -1.6 0 -3.2 0.5 -3.5 1 -0.9 1.5 -3.5 1.2 -3.5 -0.4 0 -3.2 9.9 -3.7 13 -0.6 1.7 1.7 2 3.3 2 10.5 0 7.8 -0.5 9.6 -2.3 7.8z"/>
  <path d="M231.3 86 c-3 -1.2 -4.3 -4.1 -4.3 -9.8 0 -6.4 3.2 -10.2 8.5 -10.2 3.5 0 3.5 0 3.5 -4.5 0 -3.3 0.4 -4.5 1.5 -4.5 1.3 0 1.5 2.3 1.5 14.4 0 14.1 0 14.4 -2.2 15 -3.1 0.8 -5.8 0.7 -8.5 -0.4z m7.5 -9.7 l0.3 -8.3 -3 0 c-3.9 0 -6.1 3.2 -6.1 8.7 0 5 2.8 8.6 6.3 8.1 2 -0.3 2.2 -0.9 2.5 -8.5z"/>
  <path d="M251.3 86 c-3.1 -1.3 -4.3 -4.1 -4.3 -10 0 -4.1 0.5 -5.6 2.5 -7.5 2.6 -2.7 7.1 -3.3 9.8 -1.2 1.8 1.2 3.9 7.1 3 8.1 -0.3 0.3 -3.2 0.8 -6.4 1.2 -4.6 0.5 -5.9 1 -5.9 2.3 0 3.4 2.6 5.5 7.1 5.7 5.6 0.2 5.7 0.2 3.9 1.4 -1.8 1.2 -6.7 1.2 -9.7 0z m7.9 -11.9 c1.4 -1.3 -1.7 -5.6 -4.3 -5.9 -2.9 -0.3 -4.3 1 -5.3 5.1 l-0.7 2.8 4.8 -0.7 c2.6 -0.3 5.1 -0.9 5.5 -1.3z"/>
  <path d="M267 76.6 c0 -7.6 0.3 -9.5 1.6 -10 2.5 -1 7.4 -0.7 7.4 0.4 0 0.6 -1.1 1 -2.4 1 -3.1 0 -3.6 1.5 -3.6 10.6 0 5.9 -0.3 7.4 -1.5 7.4 -1.2 0 -1.5 -1.7 -1.5 -9.4z"/>
  <path d="M66.5 74.2 c-0.5 -0.4 -1.6 -1.5 -2.4 -2.5 -1.3 -1.6 -0.9 -2.3 3.4 -6.7 4.8 -4.9 4.9 -5 2.2 -5 -2.5 0 -2.7 -0.3 -2.7 -4 l0 -4 9.5 0 9.5 0 0 10 0 10 -3.5 0 c-3.4 0 -3.5 -0.1 -3.5 -3.7 l0 -3.7 -5.3 5.2 c-5.6 5.5 -5.7 5.6 -7.2 4.4z"/>
  <path d="M131 68 c0 -1.1 0.7 -2 1.5 -2 0.8 0 1.5 0.9 1.5 2 0 1.1 -0.7 2 -1.5 2 -0.8 0 -1.5 -0.9 -1.5 -2z"/>
 </g>
 <g fill="#cccbcb">
  <path d="M39 74.5 l0 -23.5 8.4 0 c10.9 0 11.6 0.3 11.6 5.1 l0 3.9 -6.5 0 -6.6 0 0.3 15.3 0.3 15.2 15.5 0 15.5 0 0.5 -5.5 c0.5 -5.4 0.6 -5.5 3.8 -5.8 l3.2 -0.3 0 9.5 0 9.6 -23 0 -23 0 0 -23.5z"/>
 </g>
 <g fill="#1b3a7c">
  <path d="M106 86.1 c0 -1.3 6.3 -2 7.5 -0.8 0.7 0.7 0.4 0.8 -0.7 0.4 -1 -0.4 -1.8 -0.2 -1.8 0.3 0 0.6 -1.1 1 -2.5 1 -1.4 0 -2.5 -0.4 -2.5 -0.9z"/>
  <path d="M154.7 85 c-1.5 -1.2 -2.7 -3.1 -2.7 -4.3 0.1 -2 0.3 -1.9 2.8 1.1 2.9 3.5 5.2 4.1 7.2 1.7 1.3 -1.6 3 -2 3 -0.7 -0.1 1.7 -1.7 3 -4.6 3.6 -2.3 0.5 -3.7 0.2 -5.7 -1.4z"/>
  <path d="M207.7 86.4 c-0.6 -0.7 -1 -19.3 -0.4 -19.5 3.3 -0.8 9.7 -0.9 9.7 -0.1 0 0.6 -1.5 1.2 -3.2 1.4 l-3.3 0.3 -0.3 8.5 c-0.3 8.1 -1 10.8 -2.5 9.4z"/>
  <path d="M232.3 85.9 c-1.3 -0.5 -2.3 -1.3 -2.3 -1.9 0 -1.4 1.1 -1.2 3.4 0.5 2.4 1.8 1.8 2.5 -1.1 1.4z"/>
  <path d="M254 85.8 c0 -0.8 1.4 -1.3 3.5 -1.3 4 0 4.6 1 1.3 1.9 -3.5 0.9 -4.8 0.7 -4.8 -0.6z"/>
  <path d="M268.2 76.3 c0.1 -10.1 0.5 -8.9 1 3 0.2 3.7 0 6.7 -0.4 6.7 -0.5 0 -0.7 -4.4 -0.6 -9.7z"/>
  <path d="M132.3 84.3 c-0.9 -0.3 -1.3 -3.1 -1.3 -8.9 0 -6.8 0.3 -8.4 1.5 -8.4 1.2 0 1.5 1.7 1.5 9 0 5 -0.1 9 -0.2 8.9 -0.2 0 -0.9 -0.3 -1.5 -0.6z"/>
  <path d="M227 80.5 c0 -0.8 0.7 -1.5 1.5 -1.5 0.8 0 1.5 0.4 1.5 0.9 0 0.5 -0.7 1.1 -1.5 1.5 -0.9 0.3 -1.5 0 -1.5 -0.9z"/>
  <path d="M106.5 76 c-0.3 -0.4 0.9 -1 2.5 -1.2 1.7 -0.3 3 -0.1 3 0.3 0 1 -5 1.8 -5.5 0.9z"/>
  <path d="M164 75 c0 -0.5 0.7 -1 1.5 -1 0.8 0 1.5 0.5 1.5 1 0 0.6 -0.7 1 -1.5 1 -0.8 0 -1.5 -0.4 -1.5 -1z"/>
  <path d="M257 75.3 c1.4 -0.3 3 -0.9 3.7 -1.4 0.7 -0.7 1.4 -0.6 1.9 0.2 0.4 0.8 0.3 0.9 -0.4 0.5 -0.7 -0.4 -1.2 -0.2 -1.2 0.3 0 0.6 -1.5 1 -3.2 1 -2.8 -0.2 -2.9 -0.2 -0.8 -0.6z"/>
  <path d="M187 72.7 c0 -1.8 2.7 -5.3 3.5 -4.6 0.7 0.8 -1.5 5.9 -2.7 5.9 -0.4 0 -0.8 -0.6 -0.8 -1.3z"/>
  <path d="M83 70.5 c0 -0.8 0.7 -1.5 1.5 -1.5 0.8 0 1.5 0.7 1.5 1.5 0 0.8 -0.7 1.5 -1.5 1.5 -0.8 0 -1.5 -0.7 -1.5 -1.5z"/>
  <path d="M100 71.2 c0 -1.8 4.8 -5.2 7.3 -5.2 2.6 0 6.7 3 6.7 5 0 1.7 -1.9 1.1 -3 -1 -0.7 -1.3 -2.1 -2 -4 -2 -1.9 0 -3.3 0.7 -4 2 -1.1 2 -3 2.7 -3 1.2z"/>
  <path d="M228.4 70.4 c0.3 -0.9 0.6 -1.8 0.6 -2 0 -0.3 0.5 -0.2 1 0.1 1.6 1 1.2 3.5 -0.6 3.5 -1.1 0 -1.4 -0.5 -1 -1.6z"/>
  <path d="M172.9 67.7 c1.5 -1.9 6.6 -2.3 7.6 -0.7 0.3 0.6 0 1 -0.8 1 -0.8 0 -3 0.3 -4.8 0.7 -3.1 0.6 -3.3 0.5 -2 -1z"/>
  <path d="M143 67 c0 -0.5 1.1 -1 2.5 -1 1.4 0 2.5 0.5 2.5 1 0 0.6 -1.1 1 -2.5 1 -1.4 0 -2.5 -0.4 -2.5 -1z"/>
  <path d="M192 67 c0 -0.5 1.1 -1 2.5 -1 1.4 0 2.5 0.5 2.5 1 0 0.6 -1.1 1 -2.5 1 -1.4 0 -2.5 -0.4 -2.5 -1z"/>
  <path d="M254 67 c0 -0.5 0.7 -1 1.5 -1 0.8 0 1.5 0.5 1.5 1 0 0.6 -0.7 1 -1.5 1 -0.8 0 -1.5 -0.4 -1.5 -1z"/>
  <path d="M270 67 c0 -0.5 1.4 -1 3.1 -1 1.7 0 2.8 0.4 2.4 1 -0.3 0.6 -1.7 1 -3.1 1 -1.3 0 -2.4 -0.4 -2.4 -1z"/>
 </g>
</svg>