<?xml version="1.0" standalone="no"?>
<!DOCTYPE svg PUBLIC "-//W3C//DTD SVG 20010904//EN"
 "http://www.w3.org/TR/2001/REC-SVG-20010904/DTD/svg10.dtd">
<svg version="1.0" xmlns="http://www.w3.org/2000/svg"
 width="565.000000pt" height="322.000000pt" viewBox="0 0 565.000000 322.000000"
 preserveAspectRatio="xMidYMid meet">

<g transform="translate(0.000000,322.000000) scale(0.100000,-0.100000)"
fill="#000000" stroke="none">
<path d="M2940 2875 l0 -105 80 0 c44 0 80 -3 80 -8 0 -4 -70 -77 -155 -162
l-155 -155 72 -72 c40 -40 77 -73 83 -73 5 0 85 75 177 167 l168 168 0 -108 0
-107 105 0 105 0 0 280 0 280 -280 0 -280 0 0 -105z"/>
<path d="M4290 1082 l0 -139 -87 1 c-72 0 -96 -4 -129 -21 -56 -30 -98 -80
-124 -150 -31 -82 -26 -246 9 -313 32 -63 65 -95 124 -120 43 -19 64 -22 141
-18 52 3 107 12 129 21 l37 16 0 430 0 431 -50 0 -50 0 0 -138z m-2 -440 l2
-242 -25 -10 c-40 -15 -96 -11 -143 10 -36 16 -47 29 -69 77 -23 49 -27 72
-27 148 -1 184 61 267 194 262 l65 -2 3 -243z"/>
<path d="M445 931 c-88 -41 -136 -128 -143 -261 -11 -225 74 -340 259 -349 78
-3 189 19 189 39 0 5 -4 20 -10 34 -9 25 -10 25 -51 11 -49 -17 -146 -20 -186
-4 -40 15 -73 48 -94 94 -19 40 -26 105 -11 105 27 0 369 54 375 60 12 10 -11
137 -32 179 -24 46 -56 76 -103 96 -51 21 -143 19 -193 -4z m166 -57 c18 -9
38 -32 50 -57 21 -48 26 -127 7 -127 -7 0 -71 -9 -142 -20 -71 -11 -131 -20
-134 -20 -13 0 8 132 25 162 41 70 126 98 194 62z"/>
<path d="M1531 934 c-29 -8 -57 -17 -62 -20 -5 -3 -9 -135 -9 -295 l0 -289 50
0 50 0 0 269 0 270 23 7 c12 4 43 7 69 6 43 -1 47 1 57 30 6 17 11 33 11 34 0
10 -142 1 -189 -12z"/>
<path d="M1915 931 c-50 -23 -78 -53 -107 -116 -20 -44 -23 -65 -23 -180 0
-115 3 -136 23 -180 44 -95 104 -135 207 -135 161 0 243 122 233 346 -8 192
-84 284 -233 284 -37 0 -75 -7 -100 -19z m174 -66 c43 -37 64 -109 64 -225 1
-163 -35 -240 -119 -256 -44 -8 -103 21 -126 62 -10 17 -24 68 -30 112 -20
137 17 292 76 320 41 20 102 14 135 -13z"/>
<path d="M2429 931 c-90 -50 -111 -170 -42 -252 15 -17 58 -46 97 -63 85 -39
97 -52 103 -111 5 -41 3 -47 -30 -80 -30 -30 -42 -35 -81 -35 -26 0 -63 7 -83
15 -20 8 -37 14 -38 13 -1 -2 -8 -14 -15 -27 -11 -21 -10 -26 6 -38 57 -41
171 -44 245 -5 92 48 122 141 77 232 -20 39 -34 50 -108 88 -100 50 -120 70
-120 124 0 44 31 83 74 94 24 6 76 -3 117 -20 11 -5 19 1 27 19 10 22 9 27
-15 42 -41 27 -167 29 -214 4z"/>
<path d="M2925 931 c-56 -25 -111 -90 -129 -152 -24 -78 -21 -224 4 -293 27
-70 51 -100 107 -133 62 -36 184 -44 267 -18 60 19 62 21 45 59 -11 24 -12 24
-51 10 -64 -22 -165 -18 -212 9 -47 26 -86 93 -86 147 0 44 -20 37 223 71
l157 22 0 47 c0 107 -49 197 -125 231 -53 24 -147 24 -200 0z m159 -56 c42
-20 66 -63 73 -128 l5 -53 -114 -18 c-63 -9 -132 -20 -152 -23 l-38 -6 7 49
c13 97 49 164 99 184 33 14 85 11 120 -5z"/>
<path d="M3447 940 c-83 -21 -77 5 -77 -320 l0 -290 50 0 50 0 0 269 c0 186 3
272 11 277 23 14 138 17 169 4 56 -23 60 -44 60 -310 l0 -240 50 0 50 0 0 242
c0 224 -2 245 -21 284 -33 70 -74 88 -199 91 -58 1 -122 -2 -143 -7z"/>
<path d="M4645 931 c-88 -41 -135 -127 -143 -261 -7 -135 29 -243 101 -300 63
-50 193 -65 295 -35 53 16 61 29 42 65 -9 18 -13 18 -55 3 -64 -21 -175 -14
-212 13 -42 31 -71 80 -79 130 -3 25 -5 47 -3 49 2 2 91 16 197 31 l193 28 -6
61 c-8 68 -35 138 -68 174 -55 59 -181 80 -262 42z m173 -61 c38 -23 58 -65
63 -130 l4 -45 -100 -16 c-55 -9 -122 -20 -149 -23 l-49 -8 6 61 c3 33 13 77
24 98 37 77 130 106 201 63z"/>
<path d="M5161 934 c-29 -8 -57 -17 -62 -20 -5 -3 -9 -135 -9 -295 l0 -289 50
0 50 0 0 269 0 270 23 7 c12 4 43 7 69 6 51 -1 52 0 62 41 l6 27 -67 -1 c-38
0 -92 -7 -122 -15z"/>
<path d="M890 706 c0 -147 4 -246 11 -267 15 -45 65 -96 107 -110 49 -16 217
-7 270 15 l42 18 0 289 0 289 -50 0 -50 0 0 -269 c0 -219 -3 -270 -14 -274 -7
-3 -34 -8 -59 -12 -62 -9 -114 9 -138 49 -17 28 -19 52 -19 269 l0 237 -50 0
-50 0 0 -234z"/>
</g>
</svg>
